<?xml version="1.0" encoding="UTF-8"?>
<svg xmlns="http://www.w3.org/2000/svg" xmlns:xlink="http://www.w3.org/1999/xlink" viewBox="0 0 100 100" width="100px" height="100px">
<g id="surface401211">
<path style=" stroke:none;fill-rule:nonzero;fill:rgb(58.431375%,64.705884%,65.098041%);fill-opacity:1;" d="M 88.753906 11.972656 C 87.78125 12.015625 86.832031 12.285156 85.976562 12.628906 C 85.128906 12.96875 80.257812 15.046875 73.0625 18.125 C 65.867188 21.203125 56.515625 25.207031 47.242188 29.179688 C 28.699219 37.125 10.476562 44.941406 10.476562 44.941406 L 10.609375 44.890625 C 10.609375 44.890625 9.507812 45.257812 8.394531 46.035156 C 7.835938 46.421875 7.238281 46.925781 6.746094 47.65625 C 6.253906 48.386719 5.894531 49.421875 6.03125 50.519531 C 6.507812 54.367188 10.496094 55.460938 10.496094 55.460938 L 10.511719 55.46875 L 28.316406 61.5625 C 28.769531 63.078125 33.714844 79.585938 34.804688 83.082031 C 35.40625 85.015625 35.96875 86.128906 36.554688 86.890625 C 36.847656 87.269531 37.15625 87.566406 37.496094 87.78125 C 37.632812 87.867188 37.773438 87.929688 37.914062 87.988281 C 37.917969 87.988281 37.917969 87.988281 37.921875 87.988281 C 37.9375 87.996094 37.957031 87.996094 37.972656 88.003906 L 37.925781 87.992188 C 37.957031 88.003906 37.992188 88.027344 38.023438 88.039062 C 38.085938 88.0625 38.125 88.058594 38.207031 88.078125 C 40.246094 88.789062 41.933594 87.46875 41.933594 87.46875 L 42.003906 87.414062 L 52.941406 77.269531 L 70.691406 91.109375 L 70.914062 91.210938 C 74.019531 92.589844 76.832031 91.820312 78.386719 90.554688 C 79.941406 89.289062 80.554688 87.65625 80.554688 87.65625 L 80.621094 87.484375 L 93.664062 19.503906 C 93.996094 17.984375 94.046875 16.667969 93.730469 15.480469 C 93.414062 14.292969 92.652344 13.261719 91.691406 12.6875 C 90.730469 12.113281 89.726562 11.929688 88.753906 11.972656 Z M 88.859375 16.039062 C 89.253906 16.019531 89.546875 16.066406 89.640625 16.121094 C 89.734375 16.175781 89.773438 16.167969 89.863281 16.503906 C 89.953125 16.839844 90 17.542969 89.757812 18.648438 L 89.75 18.671875 L 76.78125 86.257812 C 76.75 86.324219 76.480469 86.949219 75.863281 87.453125 C 75.234375 87.964844 74.535156 88.363281 72.675781 87.585938 L 53.265625 72.449219 L 52.71875 72.019531 L 52.707031 72.03125 L 46.902344 67.675781 L 79.523438 29.296875 C 80.035156 28.695312 80.144531 27.851562 79.804688 27.136719 C 79.464844 26.425781 78.738281 25.980469 77.949219 26 C 77.570312 26.011719 77.203125 26.125 76.890625 26.335938 L 29.6875 57.804688 L 11.855469 51.699219 C 11.855469 51.699219 10.085938 50.714844 10 50.027344 C 9.996094 49.988281 9.972656 50.023438 10.066406 49.886719 C 10.160156 49.75 10.390625 49.519531 10.679688 49.316406 C 11.257812 48.914062 11.921875 48.667969 11.921875 48.667969 L 11.988281 48.644531 L 12.054688 48.617188 C 12.054688 48.617188 30.277344 40.800781 48.820312 32.855469 C 58.089844 28.882812 67.441406 24.878906 74.636719 21.804688 C 81.828125 18.730469 87.023438 16.515625 87.464844 16.339844 C 87.964844 16.140625 88.464844 16.058594 88.859375 16.039062 Z M 67.226562 37.585938 L 42.488281 66.691406 L 42.476562 66.703125 C 42.4375 66.75 42.402344 66.796875 42.367188 66.847656 C 42.328125 66.902344 42.292969 66.957031 42.257812 67.015625 C 42.117188 67.25 42.03125 67.511719 41.996094 67.785156 C 41.996094 67.789062 41.996094 67.796875 41.996094 67.800781 L 38.773438 82.292969 C 38.71875 82.136719 38.683594 82.078125 38.625 81.894531 L 38.625 81.890625 C 37.601562 78.601562 32.933594 63.03125 32.289062 60.878906 Z M 45.28125 71.460938 L 49.726562 74.796875 L 43.195312 80.851562 Z M 45.28125 71.460938 "/>
</g>
</svg>
